<svg xmlns="http://www.w3.org/2000/svg" xmlns:xlink="http://www.w3.org/1999/xlink" width="800" zoomAndPan="magnify" viewBox="0 0 600 299.999988" height="400" preserveAspectRatio="xMidYMid meet" version="1.0"><defs><g/><clipPath id="d859884d6f"><path d="M 377.644531 43.449219 L 471 43.449219 L 471 124.964844 L 377.644531 124.964844 Z M 377.644531 43.449219 " clip-rule="nonzero"/></clipPath><clipPath id="3f0af07523"><path d="M 438.433594 43.449219 L 410.011719 43.449219 C 392.132812 43.449219 377.644531 57.605469 377.644531 75.070312 C 377.644531 87.710938 385.242188 98.613281 396.214844 103.675781 L 396.214844 124.964844 L 418.199219 106.6875 L 438.433594 106.6875 C 456.3125 106.6875 470.800781 92.53125 470.800781 75.066406 C 470.804688 57.605469 456.3125 43.449219 438.433594 43.449219 " clip-rule="nonzero"/></clipPath></defs><path stroke-linecap="butt" transform="matrix(1.5, 0, 0, 1.5, 0.000012, 139.784213)" fill="none" stroke-linejoin="miter" d="M -0.000008 3.000629 L 400.000025 3.000629 " stroke="#ffffff" stroke-width="6" stroke-opacity="1" stroke-miterlimit="4"/><g fill="#ffffff" fill-opacity="1"><g transform="translate(89.872567, 242.263706)"><g><path d="M 63.359375 -58.734375 C 63.359375 -57.703125 63.3125 -56.804688 63.21875 -56.046875 C 63.132812 -55.296875 63.007812 -54.695312 62.84375 -54.25 C 62.6875 -53.800781 62.488281 -53.488281 62.25 -53.3125 C 62.019531 -53.132812 61.742188 -53.046875 61.421875 -53.046875 C 60.960938 -53.046875 60.210938 -53.367188 59.171875 -54.015625 C 58.128906 -54.660156 56.75 -55.359375 55.03125 -56.109375 C 53.3125 -56.859375 51.257812 -57.554688 48.875 -58.203125 C 46.488281 -58.847656 43.722656 -59.171875 40.578125 -59.171875 C 37.203125 -59.171875 34.15625 -58.585938 31.4375 -57.421875 C 28.71875 -56.253906 26.390625 -54.601562 24.453125 -52.46875 C 22.515625 -50.34375 21.023438 -47.785156 19.984375 -44.796875 C 18.953125 -41.804688 18.4375 -38.5 18.4375 -34.875 C 18.4375 -30.894531 18.960938 -27.390625 20.015625 -24.359375 C 21.078125 -21.335938 22.554688 -18.804688 24.453125 -16.765625 C 26.347656 -14.722656 28.628906 -13.179688 31.296875 -12.140625 C 33.972656 -11.109375 36.921875 -10.59375 40.140625 -10.59375 C 41.722656 -10.59375 43.28125 -10.769531 44.8125 -11.125 C 46.351562 -11.476562 47.789062 -12.015625 49.125 -12.734375 L 49.125 -28.859375 L 35.953125 -28.859375 C 35.304688 -28.859375 34.800781 -29.257812 34.4375 -30.0625 C 34.082031 -30.875 33.90625 -32.242188 33.90625 -34.171875 C 33.90625 -35.179688 33.945312 -36.023438 34.03125 -36.703125 C 34.125 -37.378906 34.257812 -37.925781 34.4375 -38.34375 C 34.625 -38.757812 34.84375 -39.0625 35.09375 -39.25 C 35.34375 -39.445312 35.628906 -39.546875 35.953125 -39.546875 L 59.4375 -39.546875 C 60.007812 -39.546875 60.519531 -39.445312 60.96875 -39.25 C 61.414062 -39.0625 61.804688 -38.769531 62.140625 -38.375 C 62.484375 -37.976562 62.742188 -37.5 62.921875 -36.9375 C 63.109375 -36.382812 63.203125 -35.753906 63.203125 -35.046875 L 63.203125 -7.359375 C 63.203125 -6.285156 63.015625 -5.34375 62.640625 -4.53125 C 62.265625 -3.726562 61.492188 -3.09375 60.328125 -2.625 C 59.160156 -2.164062 57.71875 -1.6875 56 -1.1875 C 54.28125 -0.6875 52.5 -0.257812 50.65625 0.09375 C 48.8125 0.457031 46.945312 0.726562 45.0625 0.90625 C 43.175781 1.09375 41.285156 1.1875 39.390625 1.1875 C 33.835938 1.1875 28.863281 0.390625 24.46875 -1.203125 C 20.082031 -2.796875 16.367188 -5.109375 13.328125 -8.140625 C 10.285156 -11.171875 7.957031 -14.859375 6.34375 -19.203125 C 4.726562 -23.554688 3.921875 -28.492188 3.921875 -34.015625 C 3.921875 -39.710938 4.78125 -44.828125 6.5 -49.359375 C 8.21875 -53.890625 10.65625 -57.738281 13.8125 -60.90625 C 16.96875 -64.082031 20.773438 -66.507812 25.234375 -68.1875 C 29.691406 -69.875 34.660156 -70.71875 40.140625 -70.71875 C 43.148438 -70.71875 45.890625 -70.507812 48.359375 -70.09375 C 50.835938 -69.6875 53 -69.1875 54.84375 -68.59375 C 56.6875 -68.007812 58.21875 -67.375 59.4375 -66.6875 C 60.65625 -66.007812 61.503906 -65.421875 61.984375 -64.921875 C 62.472656 -64.421875 62.820312 -63.710938 63.03125 -62.796875 C 63.25 -61.878906 63.359375 -60.523438 63.359375 -58.734375 Z M 63.359375 -58.734375 "/></g></g></g><g fill="#ffffff" fill-opacity="1"><g transform="translate(160.00516, 242.263706)"><g><path d="M 59.171875 -1.828125 C 59.171875 -1.429688 59.097656 -1.097656 58.953125 -0.828125 C 58.804688 -0.566406 58.460938 -0.34375 57.921875 -0.15625 C 57.390625 0.0195312 56.601562 0.144531 55.5625 0.21875 C 54.53125 0.289062 53.117188 0.328125 51.328125 0.328125 C 49.816406 0.328125 48.613281 0.289062 47.71875 0.21875 C 46.820312 0.144531 46.113281 0.0078125 45.59375 -0.1875 C 45.082031 -0.382812 44.71875 -0.632812 44.5 -0.9375 C 44.28125 -1.238281 44.097656 -1.609375 43.953125 -2.046875 L 37.71875 -17.578125 C 36.96875 -19.328125 36.234375 -20.882812 35.515625 -22.25 C 34.804688 -23.613281 34.007812 -24.75 33.125 -25.65625 C 32.25 -26.570312 31.238281 -27.257812 30.09375 -27.71875 C 28.945312 -28.1875 27.625 -28.421875 26.125 -28.421875 L 21.71875 -28.421875 L 21.71875 -1.9375 C 21.71875 -1.570312 21.597656 -1.242188 21.359375 -0.953125 C 21.128906 -0.671875 20.742188 -0.441406 20.203125 -0.265625 C 19.671875 -0.0859375 18.957031 0.0507812 18.0625 0.15625 C 17.164062 0.269531 16.019531 0.328125 14.625 0.328125 C 13.257812 0.328125 12.117188 0.269531 11.203125 0.15625 C 10.285156 0.0507812 9.554688 -0.0859375 9.015625 -0.265625 C 8.484375 -0.441406 8.109375 -0.671875 7.890625 -0.953125 C 7.679688 -1.242188 7.578125 -1.570312 7.578125 -1.9375 L 7.578125 -65.078125 C 7.578125 -66.660156 7.976562 -67.800781 8.78125 -68.5 C 9.59375 -69.195312 10.585938 -69.546875 11.765625 -69.546875 L 29.765625 -69.546875 C 31.597656 -69.546875 33.101562 -69.507812 34.28125 -69.4375 C 35.46875 -69.363281 36.546875 -69.273438 37.515625 -69.171875 C 40.304688 -68.773438 42.820312 -68.09375 45.0625 -67.125 C 47.300781 -66.15625 49.195312 -64.890625 50.75 -63.328125 C 52.3125 -61.773438 53.503906 -59.929688 54.328125 -57.796875 C 55.148438 -55.660156 55.5625 -53.21875 55.5625 -50.46875 C 55.5625 -48.132812 55.265625 -46.007812 54.671875 -44.09375 C 54.085938 -42.175781 53.222656 -40.460938 52.078125 -38.953125 C 50.929688 -37.453125 49.515625 -36.144531 47.828125 -35.03125 C 46.140625 -33.925781 44.222656 -33.035156 42.078125 -32.359375 C 43.117188 -31.847656 44.09375 -31.234375 45 -30.515625 C 45.914062 -29.804688 46.773438 -28.941406 47.578125 -27.921875 C 48.390625 -26.898438 49.15625 -25.734375 49.875 -24.421875 C 50.59375 -23.117188 51.289062 -21.640625 51.96875 -19.984375 L 57.828125 -6.28125 C 58.359375 -4.925781 58.710938 -3.929688 58.890625 -3.296875 C 59.078125 -2.671875 59.171875 -2.179688 59.171875 -1.828125 Z M 40.953125 -49.015625 C 40.953125 -51.304688 40.429688 -53.238281 39.390625 -54.8125 C 38.347656 -56.394531 36.644531 -57.503906 34.28125 -58.140625 C 33.570312 -58.328125 32.757812 -58.472656 31.84375 -58.578125 C 30.925781 -58.679688 29.660156 -58.734375 28.046875 -58.734375 L 21.71875 -58.734375 L 21.71875 -39.015625 L 28.90625 -39.015625 C 30.914062 -39.015625 32.671875 -39.253906 34.171875 -39.734375 C 35.679688 -40.222656 36.9375 -40.90625 37.9375 -41.78125 C 38.945312 -42.65625 39.703125 -43.703125 40.203125 -44.921875 C 40.703125 -46.140625 40.953125 -47.503906 40.953125 -49.015625 Z M 40.953125 -49.015625 "/></g></g></g><g fill="#ffffff" fill-opacity="1"><g transform="translate(221.969052, 242.263706)"><g><path d="M 70.125 -35.578125 C 70.125 -29.804688 69.40625 -24.644531 67.96875 -20.09375 C 66.539062 -15.550781 64.410156 -11.691406 61.578125 -8.515625 C 58.753906 -5.347656 55.253906 -2.929688 51.078125 -1.265625 C 46.910156 0.398438 42.082031 1.234375 36.59375 1.234375 C 31.1875 1.234375 26.46875 0.523438 22.4375 -0.890625 C 18.40625 -2.304688 15.046875 -4.460938 12.359375 -7.359375 C 9.671875 -10.265625 7.65625 -13.957031 6.3125 -18.4375 C 4.96875 -22.914062 4.296875 -28.21875 4.296875 -34.34375 C 4.296875 -39.96875 5.007812 -45.023438 6.4375 -49.515625 C 7.875 -54.015625 10.007812 -57.835938 12.84375 -60.984375 C 15.675781 -64.140625 19.175781 -66.5625 23.34375 -68.25 C 27.519531 -69.9375 32.367188 -70.78125 37.890625 -70.78125 C 43.148438 -70.78125 47.796875 -70.078125 51.828125 -68.671875 C 55.859375 -67.273438 59.226562 -65.125 61.9375 -62.21875 C 64.644531 -59.320312 66.6875 -55.660156 68.0625 -51.234375 C 69.4375 -46.816406 70.125 -41.597656 70.125 -35.578125 Z M 55.296875 -34.828125 C 55.296875 -38.484375 55.007812 -41.804688 54.4375 -44.796875 C 53.863281 -47.785156 52.882812 -50.34375 51.5 -52.46875 C 50.125 -54.601562 48.289062 -56.253906 46 -57.421875 C 43.707031 -58.585938 40.84375 -59.171875 37.40625 -59.171875 C 33.925781 -59.171875 31.019531 -58.515625 28.6875 -57.203125 C 26.363281 -55.898438 24.484375 -54.15625 23.046875 -51.96875 C 21.617188 -49.78125 20.609375 -47.226562 20.015625 -44.3125 C 19.421875 -41.394531 19.125 -38.304688 19.125 -35.046875 C 19.125 -31.242188 19.410156 -27.828125 19.984375 -24.796875 C 20.566406 -21.773438 21.535156 -19.1875 22.890625 -17.03125 C 24.253906 -14.882812 26.082031 -13.242188 28.375 -12.109375 C 30.664062 -10.984375 33.550781 -10.421875 37.03125 -10.421875 C 40.5 -10.421875 43.398438 -11.066406 45.734375 -12.359375 C 48.066406 -13.648438 49.945312 -15.40625 51.375 -17.625 C 52.8125 -19.84375 53.820312 -22.429688 54.40625 -25.390625 C 55 -28.347656 55.296875 -31.492188 55.296875 -34.828125 Z M 55.296875 -34.828125 "/></g></g></g><g fill="#ffffff" fill-opacity="1"><g transform="translate(296.400961, 242.263706)"><g><path d="M 64.328125 -25.90625 C 64.328125 -21.644531 63.695312 -17.828125 62.4375 -14.453125 C 61.1875 -11.085938 59.34375 -8.238281 56.90625 -5.90625 C 54.46875 -3.582031 51.457031 -1.8125 47.875 -0.59375 C 44.300781 0.625 40.179688 1.234375 35.515625 1.234375 C 31.148438 1.234375 27.226562 0.6875 23.75 -0.40625 C 20.28125 -1.5 17.34375 -3.15625 14.9375 -5.375 C 12.539062 -7.59375 10.707031 -10.359375 9.4375 -13.671875 C 8.164062 -16.984375 7.53125 -20.863281 7.53125 -25.3125 L 7.53125 -67.609375 C 7.53125 -67.960938 7.632812 -68.28125 7.84375 -68.5625 C 8.0625 -68.851562 8.445312 -69.085938 9 -69.265625 C 9.550781 -69.453125 10.273438 -69.597656 11.171875 -69.703125 C 12.066406 -69.804688 13.21875 -69.859375 14.625 -69.859375 C 15.976562 -69.859375 17.101562 -69.804688 18 -69.703125 C 18.894531 -69.597656 19.609375 -69.453125 20.140625 -69.265625 C 20.679688 -69.085938 21.066406 -68.851562 21.296875 -68.5625 C 21.535156 -68.28125 21.65625 -67.960938 21.65625 -67.609375 L 21.65625 -26.546875 C 21.65625 -23.785156 21.992188 -21.394531 22.671875 -19.375 C 23.359375 -17.351562 24.335938 -15.675781 25.609375 -14.34375 C 26.878906 -13.019531 28.398438 -12.023438 30.171875 -11.359375 C 31.953125 -10.703125 33.929688 -10.375 36.109375 -10.375 C 38.335938 -10.375 40.328125 -10.710938 42.078125 -11.390625 C 43.835938 -12.078125 45.328125 -13.070312 46.546875 -14.375 C 47.765625 -15.6875 48.703125 -17.300781 49.359375 -19.21875 C 50.023438 -21.132812 50.359375 -23.304688 50.359375 -25.734375 L 50.359375 -67.609375 C 50.359375 -67.960938 50.460938 -68.28125 50.671875 -68.5625 C 50.890625 -68.851562 51.265625 -69.085938 51.796875 -69.265625 C 52.335938 -69.453125 53.066406 -69.597656 53.984375 -69.703125 C 54.898438 -69.804688 56.035156 -69.859375 57.390625 -69.859375 C 58.753906 -69.859375 59.875 -69.804688 60.75 -69.703125 C 61.632812 -69.597656 62.34375 -69.453125 62.875 -69.265625 C 63.414062 -69.085938 63.789062 -68.851562 64 -68.5625 C 64.21875 -68.28125 64.328125 -67.960938 64.328125 -67.609375 Z M 64.328125 -25.90625 "/></g></g></g><g fill="#ffffff" fill-opacity="1"><g transform="translate(368.253281, 242.263706)"><g><path d="M 64.921875 -4.9375 C 64.921875 -4.113281 64.773438 -3.378906 64.484375 -2.734375 C 64.203125 -2.097656 63.816406 -1.5625 63.328125 -1.125 C 62.847656 -0.695312 62.273438 -0.382812 61.609375 -0.1875 C 60.953125 0.0078125 60.28125 0.109375 59.59375 0.109375 L 53.578125 0.109375 C 52.328125 0.109375 51.242188 -0.015625 50.328125 -0.265625 C 49.410156 -0.515625 48.566406 -0.972656 47.796875 -1.640625 C 47.023438 -2.304688 46.28125 -3.203125 45.5625 -4.328125 C 44.851562 -5.453125 44.050781 -6.910156 43.15625 -8.703125 L 25.84375 -41.21875 C 24.84375 -43.15625 23.820312 -45.242188 22.78125 -47.484375 C 21.75 -49.722656 20.816406 -51.898438 19.984375 -54.015625 L 19.890625 -54.015625 C 20.023438 -51.429688 20.128906 -48.859375 20.203125 -46.296875 C 20.273438 -43.734375 20.3125 -41.09375 20.3125 -38.375 L 20.3125 -1.984375 C 20.3125 -1.628906 20.210938 -1.304688 20.015625 -1.015625 C 19.816406 -0.734375 19.472656 -0.492188 18.984375 -0.296875 C 18.503906 -0.0976562 17.851562 0.0507812 17.03125 0.15625 C 16.207031 0.269531 15.148438 0.328125 13.859375 0.328125 C 12.609375 0.328125 11.570312 0.269531 10.75 0.15625 C 9.925781 0.0507812 9.28125 -0.0976562 8.8125 -0.296875 C 8.34375 -0.492188 8.019531 -0.734375 7.84375 -1.015625 C 7.664062 -1.304688 7.578125 -1.628906 7.578125 -1.984375 L 7.578125 -64.484375 C 7.578125 -66.171875 8.066406 -67.4375 9.046875 -68.28125 C 10.035156 -69.125 11.25 -69.546875 12.6875 -69.546875 L 20.265625 -69.546875 C 21.617188 -69.546875 22.757812 -69.425781 23.6875 -69.1875 C 24.625 -68.957031 25.457031 -68.570312 26.1875 -68.03125 C 26.925781 -67.5 27.617188 -66.753906 28.265625 -65.796875 C 28.910156 -64.847656 29.570312 -63.675781 30.25 -62.28125 L 43.796875 -36.859375 C 44.585938 -35.328125 45.367188 -33.816406 46.140625 -32.328125 C 46.910156 -30.835938 47.648438 -29.347656 48.359375 -27.859375 C 49.078125 -26.378906 49.773438 -24.921875 50.453125 -23.484375 C 51.140625 -22.046875 51.804688 -20.613281 52.453125 -19.1875 L 52.5 -19.1875 C 52.394531 -21.695312 52.316406 -24.3125 52.265625 -27.03125 C 52.210938 -29.75 52.1875 -32.347656 52.1875 -34.828125 L 52.1875 -67.453125 C 52.1875 -67.804688 52.289062 -68.125 52.5 -68.40625 C 52.71875 -68.695312 53.078125 -68.945312 53.578125 -69.15625 C 54.078125 -69.375 54.738281 -69.523438 55.5625 -69.609375 C 56.394531 -69.703125 57.453125 -69.75 58.734375 -69.75 C 59.953125 -69.75 60.972656 -69.703125 61.796875 -69.609375 C 62.617188 -69.523438 63.253906 -69.375 63.703125 -69.15625 C 64.148438 -68.945312 64.460938 -68.695312 64.640625 -68.40625 C 64.828125 -68.125 64.921875 -67.804688 64.921875 -67.453125 Z M 64.921875 -4.9375 "/></g></g></g><g fill="#ffffff" fill-opacity="1"><g transform="translate(440.750516, 242.263706)"><g><path d="M 65.34375 -35.796875 C 65.34375 -29.410156 64.507812 -23.953125 62.84375 -19.421875 C 61.1875 -14.890625 58.796875 -11.191406 55.671875 -8.328125 C 52.554688 -5.460938 48.769531 -3.359375 44.3125 -2.015625 C 39.851562 -0.671875 34.539062 0 28.375 0 L 11.765625 0 C 10.585938 0 9.59375 -0.347656 8.78125 -1.046875 C 7.976562 -1.742188 7.578125 -2.878906 7.578125 -4.453125 L 7.578125 -65.078125 C 7.578125 -66.660156 7.976562 -67.800781 8.78125 -68.5 C 9.59375 -69.195312 10.585938 -69.546875 11.765625 -69.546875 L 29.609375 -69.546875 C 35.804688 -69.546875 41.0625 -68.816406 45.375 -67.359375 C 49.695312 -65.910156 53.335938 -63.757812 56.296875 -60.90625 C 59.253906 -58.0625 61.5 -54.539062 63.03125 -50.34375 C 64.570312 -46.15625 65.34375 -41.304688 65.34375 -35.796875 Z M 50.734375 -35.3125 C 50.734375 -38.601562 50.347656 -41.664062 49.578125 -44.5 C 48.804688 -47.332031 47.566406 -49.785156 45.859375 -51.859375 C 44.160156 -53.941406 41.976562 -55.5625 39.3125 -56.71875 C 36.644531 -57.882812 33.144531 -58.46875 28.8125 -58.46875 L 21.65625 -58.46875 L 21.65625 -11.171875 L 29.015625 -11.171875 C 32.890625 -11.171875 36.148438 -11.671875 38.796875 -12.671875 C 41.453125 -13.679688 43.664062 -15.195312 45.4375 -17.21875 C 47.207031 -19.25 48.53125 -21.769531 49.40625 -24.78125 C 50.289062 -27.789062 50.734375 -31.300781 50.734375 -35.3125 Z M 50.734375 -35.3125 "/></g></g></g><g fill="#ffffff" fill-opacity="1"><g transform="translate(51.450901, 112.936274)"><g><path d="M 55.671875 -10.53125 C 55.671875 -9.632812 55.644531 -8.875 55.59375 -8.25 C 55.539062 -7.625 55.457031 -7.085938 55.34375 -6.640625 C 55.238281 -6.191406 55.097656 -5.804688 54.921875 -5.484375 C 54.742188 -5.160156 54.457031 -4.789062 54.0625 -4.375 C 53.664062 -3.96875 52.90625 -3.441406 51.78125 -2.796875 C 50.65625 -2.148438 49.273438 -1.53125 47.640625 -0.9375 C 46.015625 -0.34375 44.148438 0.144531 42.046875 0.53125 C 39.953125 0.925781 37.6875 1.125 35.25 1.125 C 30.488281 1.125 26.191406 0.390625 22.359375 -1.078125 C 18.523438 -2.546875 15.265625 -4.738281 12.578125 -7.65625 C 9.890625 -10.570312 7.828125 -14.21875 6.390625 -18.59375 C 4.960938 -22.96875 4.25 -28.054688 4.25 -33.859375 C 4.25 -39.765625 5.035156 -45.007812 6.609375 -49.59375 C 8.179688 -54.1875 10.382812 -58.039062 13.21875 -61.15625 C 16.050781 -64.269531 19.445312 -66.632812 23.40625 -68.25 C 27.363281 -69.863281 31.722656 -70.671875 36.484375 -70.671875 C 38.421875 -70.671875 40.285156 -70.507812 42.078125 -70.1875 C 43.867188 -69.863281 45.523438 -69.441406 47.046875 -68.921875 C 48.566406 -68.398438 49.9375 -67.800781 51.15625 -67.125 C 52.375 -66.445312 53.222656 -65.863281 53.703125 -65.375 C 54.191406 -64.894531 54.523438 -64.492188 54.703125 -64.171875 C 54.890625 -63.847656 55.035156 -63.429688 55.140625 -62.921875 C 55.242188 -62.421875 55.320312 -61.832031 55.375 -61.15625 C 55.4375 -60.476562 55.46875 -59.632812 55.46875 -58.625 C 55.46875 -57.550781 55.429688 -56.640625 55.359375 -55.890625 C 55.285156 -55.140625 55.15625 -54.53125 54.96875 -54.0625 C 54.789062 -53.59375 54.578125 -53.25 54.328125 -53.03125 C 54.078125 -52.820312 53.789062 -52.71875 53.46875 -52.71875 C 52.9375 -52.71875 52.253906 -53.03125 51.421875 -53.65625 C 50.597656 -54.28125 49.53125 -54.976562 48.21875 -55.75 C 46.914062 -56.519531 45.359375 -57.21875 43.546875 -57.84375 C 41.742188 -58.476562 39.585938 -58.796875 37.078125 -58.796875 C 34.316406 -58.796875 31.851562 -58.226562 29.6875 -57.09375 C 27.519531 -55.96875 25.675781 -54.359375 24.15625 -52.265625 C 22.632812 -50.171875 21.476562 -47.632812 20.6875 -44.65625 C 19.90625 -41.6875 19.515625 -38.335938 19.515625 -34.609375 C 19.515625 -30.523438 19.929688 -26.988281 20.765625 -24 C 21.609375 -21.007812 22.804688 -18.546875 24.359375 -16.609375 C 25.921875 -14.671875 27.800781 -13.226562 30 -12.28125 C 32.207031 -11.332031 34.691406 -10.859375 37.453125 -10.859375 C 39.960938 -10.859375 42.128906 -11.148438 43.953125 -11.734375 C 45.785156 -12.328125 47.351562 -12.984375 48.65625 -13.703125 C 49.96875 -14.421875 51.046875 -15.066406 51.890625 -15.640625 C 52.734375 -16.210938 53.382812 -16.5 53.84375 -16.5 C 54.207031 -16.5 54.492188 -16.425781 54.703125 -16.28125 C 54.921875 -16.132812 55.101562 -15.847656 55.25 -15.421875 C 55.394531 -14.992188 55.5 -14.394531 55.5625 -13.625 C 55.632812 -12.851562 55.671875 -11.820312 55.671875 -10.53125 Z M 55.671875 -10.53125 "/></g></g></g><g fill="#ffffff" fill-opacity="1"><g transform="translate(109.706634, 112.936274)"><g><path d="M 70.125 -35.578125 C 70.125 -29.804688 69.40625 -24.644531 67.96875 -20.09375 C 66.539062 -15.550781 64.410156 -11.691406 61.578125 -8.515625 C 58.753906 -5.347656 55.253906 -2.929688 51.078125 -1.265625 C 46.910156 0.398438 42.082031 1.234375 36.59375 1.234375 C 31.1875 1.234375 26.46875 0.523438 22.4375 -0.890625 C 18.40625 -2.304688 15.046875 -4.460938 12.359375 -7.359375 C 9.671875 -10.265625 7.65625 -13.957031 6.3125 -18.4375 C 4.96875 -22.914062 4.296875 -28.21875 4.296875 -34.34375 C 4.296875 -39.96875 5.007812 -45.023438 6.4375 -49.515625 C 7.875 -54.015625 10.007812 -57.835938 12.84375 -60.984375 C 15.675781 -64.140625 19.175781 -66.5625 23.34375 -68.25 C 27.519531 -69.9375 32.367188 -70.78125 37.890625 -70.78125 C 43.148438 -70.78125 47.796875 -70.078125 51.828125 -68.671875 C 55.859375 -67.273438 59.226562 -65.125 61.9375 -62.21875 C 64.644531 -59.320312 66.6875 -55.660156 68.0625 -51.234375 C 69.4375 -46.816406 70.125 -41.597656 70.125 -35.578125 Z M 55.296875 -34.828125 C 55.296875 -38.484375 55.007812 -41.804688 54.4375 -44.796875 C 53.863281 -47.785156 52.882812 -50.34375 51.5 -52.46875 C 50.125 -54.601562 48.289062 -56.253906 46 -57.421875 C 43.707031 -58.585938 40.84375 -59.171875 37.40625 -59.171875 C 33.925781 -59.171875 31.019531 -58.515625 28.6875 -57.203125 C 26.363281 -55.898438 24.484375 -54.15625 23.046875 -51.96875 C 21.617188 -49.78125 20.609375 -47.226562 20.015625 -44.3125 C 19.421875 -41.394531 19.125 -38.304688 19.125 -35.046875 C 19.125 -31.242188 19.410156 -27.828125 19.984375 -24.796875 C 20.566406 -21.773438 21.535156 -19.1875 22.890625 -17.03125 C 24.253906 -14.882812 26.082031 -13.242188 28.375 -12.109375 C 30.664062 -10.984375 33.550781 -10.421875 37.03125 -10.421875 C 40.5 -10.421875 43.398438 -11.066406 45.734375 -12.359375 C 48.066406 -13.648438 49.945312 -15.40625 51.375 -17.625 C 52.8125 -19.84375 53.820312 -22.429688 54.40625 -25.390625 C 55 -28.347656 55.296875 -31.492188 55.296875 -34.828125 Z M 55.296875 -34.828125 "/></g></g></g><g fill="#ffffff" fill-opacity="1"><g transform="translate(184.138543, 112.936274)"><g><path d="M 88.625 -1.9375 C 88.625 -1.570312 88.523438 -1.242188 88.328125 -0.953125 C 88.128906 -0.671875 87.769531 -0.441406 87.25 -0.265625 C 86.726562 -0.0859375 86.035156 0.0507812 85.171875 0.15625 C 84.316406 0.269531 83.226562 0.328125 81.90625 0.328125 C 80.613281 0.328125 79.535156 0.269531 78.671875 0.15625 C 77.816406 0.0507812 77.140625 -0.0859375 76.640625 -0.265625 C 76.140625 -0.441406 75.78125 -0.671875 75.5625 -0.953125 C 75.34375 -1.242188 75.234375 -1.570312 75.234375 -1.9375 L 75.234375 -58.53125 L 75.125 -58.53125 L 54.984375 -1.984375 C 54.835938 -1.523438 54.601562 -1.140625 54.28125 -0.828125 C 53.957031 -0.523438 53.515625 -0.285156 52.953125 -0.109375 C 52.398438 0.0664062 51.691406 0.179688 50.828125 0.234375 C 49.972656 0.296875 48.9375 0.328125 47.71875 0.328125 C 46.5 0.328125 45.457031 0.28125 44.59375 0.1875 C 43.738281 0.09375 43.035156 -0.046875 42.484375 -0.234375 C 41.929688 -0.429688 41.492188 -0.671875 41.171875 -0.953125 C 40.847656 -1.242188 40.628906 -1.585938 40.515625 -1.984375 L 21.0625 -58.53125 L 20.953125 -58.53125 L 20.953125 -1.9375 C 20.953125 -1.570312 20.851562 -1.242188 20.65625 -0.953125 C 20.46875 -0.671875 20.101562 -0.441406 19.5625 -0.265625 C 19.019531 -0.0859375 18.328125 0.0507812 17.484375 0.15625 C 16.648438 0.269531 15.566406 0.328125 14.234375 0.328125 C 12.953125 0.328125 11.878906 0.269531 11.015625 0.15625 C 10.160156 0.0507812 9.472656 -0.0859375 8.953125 -0.265625 C 8.429688 -0.441406 8.070312 -0.671875 7.875 -0.953125 C 7.675781 -1.242188 7.578125 -1.570312 7.578125 -1.9375 L 7.578125 -63.90625 C 7.578125 -65.726562 8.0625 -67.125 9.03125 -68.09375 C 10 -69.0625 11.285156 -69.546875 12.890625 -69.546875 L 22.140625 -69.546875 C 23.785156 -69.546875 25.195312 -69.410156 26.375 -69.140625 C 27.5625 -68.867188 28.582031 -68.421875 29.4375 -67.796875 C 30.300781 -67.171875 31.019531 -66.347656 31.59375 -65.328125 C 32.164062 -64.304688 32.671875 -63.039062 33.109375 -61.53125 L 48.15625 -20.09375 L 48.375 -20.09375 L 63.953125 -61.421875 C 64.421875 -62.929688 64.929688 -64.203125 65.484375 -65.234375 C 66.035156 -66.273438 66.675781 -67.117188 67.40625 -67.765625 C 68.144531 -68.410156 69.015625 -68.867188 70.015625 -69.140625 C 71.023438 -69.410156 72.191406 -69.546875 73.515625 -69.546875 L 83.03125 -69.546875 C 84 -69.546875 84.832031 -69.421875 85.53125 -69.171875 C 86.226562 -68.921875 86.800781 -68.550781 87.25 -68.0625 C 87.695312 -67.582031 88.035156 -66.988281 88.265625 -66.28125 C 88.503906 -65.582031 88.625 -64.789062 88.625 -63.90625 Z M 88.625 -1.9375 "/></g></g></g><g fill="#ffffff" fill-opacity="1"><g transform="translate(280.33574, 112.936274)"><g><path d="M 88.625 -1.9375 C 88.625 -1.570312 88.523438 -1.242188 88.328125 -0.953125 C 88.128906 -0.671875 87.769531 -0.441406 87.25 -0.265625 C 86.726562 -0.0859375 86.035156 0.0507812 85.171875 0.15625 C 84.316406 0.269531 83.226562 0.328125 81.90625 0.328125 C 80.613281 0.328125 79.535156 0.269531 78.671875 0.15625 C 77.816406 0.0507812 77.140625 -0.0859375 76.640625 -0.265625 C 76.140625 -0.441406 75.78125 -0.671875 75.5625 -0.953125 C 75.34375 -1.242188 75.234375 -1.570312 75.234375 -1.9375 L 75.234375 -58.53125 L 75.125 -58.53125 L 54.984375 -1.984375 C 54.835938 -1.523438 54.601562 -1.140625 54.28125 -0.828125 C 53.957031 -0.523438 53.515625 -0.285156 52.953125 -0.109375 C 52.398438 0.0664062 51.691406 0.179688 50.828125 0.234375 C 49.972656 0.296875 48.9375 0.328125 47.71875 0.328125 C 46.5 0.328125 45.457031 0.28125 44.59375 0.1875 C 43.738281 0.09375 43.035156 -0.046875 42.484375 -0.234375 C 41.929688 -0.429688 41.492188 -0.671875 41.171875 -0.953125 C 40.847656 -1.242188 40.628906 -1.585938 40.515625 -1.984375 L 21.0625 -58.53125 L 20.953125 -58.53125 L 20.953125 -1.9375 C 20.953125 -1.570312 20.851562 -1.242188 20.65625 -0.953125 C 20.46875 -0.671875 20.101562 -0.441406 19.5625 -0.265625 C 19.019531 -0.0859375 18.328125 0.0507812 17.484375 0.15625 C 16.648438 0.269531 15.566406 0.328125 14.234375 0.328125 C 12.953125 0.328125 11.878906 0.269531 11.015625 0.15625 C 10.160156 0.0507812 9.472656 -0.0859375 8.953125 -0.265625 C 8.429688 -0.441406 8.070312 -0.671875 7.875 -0.953125 C 7.675781 -1.242188 7.578125 -1.570312 7.578125 -1.9375 L 7.578125 -63.90625 C 7.578125 -65.726562 8.0625 -67.125 9.03125 -68.09375 C 10 -69.0625 11.285156 -69.546875 12.890625 -69.546875 L 22.140625 -69.546875 C 23.785156 -69.546875 25.195312 -69.410156 26.375 -69.140625 C 27.5625 -68.867188 28.582031 -68.421875 29.4375 -67.796875 C 30.300781 -67.171875 31.019531 -66.347656 31.59375 -65.328125 C 32.164062 -64.304688 32.671875 -63.039062 33.109375 -61.53125 L 48.15625 -20.09375 L 48.375 -20.09375 L 63.953125 -61.421875 C 64.421875 -62.929688 64.929688 -64.203125 65.484375 -65.234375 C 66.035156 -66.273438 66.675781 -67.117188 67.40625 -67.765625 C 68.144531 -68.410156 69.015625 -68.867188 70.015625 -69.140625 C 71.023438 -69.410156 72.191406 -69.546875 73.515625 -69.546875 L 83.03125 -69.546875 C 84 -69.546875 84.832031 -69.421875 85.53125 -69.171875 C 86.226562 -68.921875 86.800781 -68.550781 87.25 -68.0625 C 87.695312 -67.582031 88.035156 -66.988281 88.265625 -66.28125 C 88.503906 -65.582031 88.625 -64.789062 88.625 -63.90625 Z M 88.625 -1.9375 "/></g></g></g><g fill="#ffffff" fill-opacity="1"><g transform="translate(376.519631, 112.936274)"><g/></g></g><g fill="#ffffff" fill-opacity="1"><g transform="translate(401.401923, 112.936274)"><g/></g></g><g fill="#ffffff" fill-opacity="1"><g transform="translate(426.284215, 112.936274)"><g/></g></g><g fill="#ffffff" fill-opacity="1"><g transform="translate(451.166507, 112.936274)"><g/></g></g><g fill="#ffffff" fill-opacity="1"><g transform="translate(476.044623, 112.936274)"><g><path d="M 64.921875 -4.9375 C 64.921875 -4.113281 64.773438 -3.378906 64.484375 -2.734375 C 64.203125 -2.097656 63.816406 -1.5625 63.328125 -1.125 C 62.847656 -0.695312 62.273438 -0.382812 61.609375 -0.1875 C 60.953125 0.0078125 60.28125 0.109375 59.59375 0.109375 L 53.578125 0.109375 C 52.328125 0.109375 51.242188 -0.015625 50.328125 -0.265625 C 49.410156 -0.515625 48.566406 -0.972656 47.796875 -1.640625 C 47.023438 -2.304688 46.28125 -3.203125 45.5625 -4.328125 C 44.851562 -5.453125 44.050781 -6.910156 43.15625 -8.703125 L 25.84375 -41.21875 C 24.84375 -43.15625 23.820312 -45.242188 22.78125 -47.484375 C 21.75 -49.722656 20.816406 -51.898438 19.984375 -54.015625 L 19.890625 -54.015625 C 20.023438 -51.429688 20.128906 -48.859375 20.203125 -46.296875 C 20.273438 -43.734375 20.3125 -41.09375 20.3125 -38.375 L 20.3125 -1.984375 C 20.3125 -1.628906 20.210938 -1.304688 20.015625 -1.015625 C 19.816406 -0.734375 19.472656 -0.492188 18.984375 -0.296875 C 18.503906 -0.0976562 17.851562 0.0507812 17.03125 0.15625 C 16.207031 0.269531 15.148438 0.328125 13.859375 0.328125 C 12.609375 0.328125 11.570312 0.269531 10.75 0.15625 C 9.925781 0.0507812 9.28125 -0.0976562 8.8125 -0.296875 C 8.34375 -0.492188 8.019531 -0.734375 7.84375 -1.015625 C 7.664062 -1.304688 7.578125 -1.628906 7.578125 -1.984375 L 7.578125 -64.484375 C 7.578125 -66.171875 8.066406 -67.4375 9.046875 -68.28125 C 10.035156 -69.125 11.25 -69.546875 12.6875 -69.546875 L 20.265625 -69.546875 C 21.617188 -69.546875 22.757812 -69.425781 23.6875 -69.1875 C 24.625 -68.957031 25.457031 -68.570312 26.1875 -68.03125 C 26.925781 -67.5 27.617188 -66.753906 28.265625 -65.796875 C 28.910156 -64.847656 29.570312 -63.675781 30.25 -62.28125 L 43.796875 -36.859375 C 44.585938 -35.328125 45.367188 -33.816406 46.140625 -32.328125 C 46.910156 -30.835938 47.648438 -29.347656 48.359375 -27.859375 C 49.078125 -26.378906 49.773438 -24.921875 50.453125 -23.484375 C 51.140625 -22.046875 51.804688 -20.613281 52.453125 -19.1875 L 52.5 -19.1875 C 52.394531 -21.695312 52.316406 -24.3125 52.265625 -27.03125 C 52.210938 -29.75 52.1875 -32.347656 52.1875 -34.828125 L 52.1875 -67.453125 C 52.1875 -67.804688 52.289062 -68.125 52.5 -68.40625 C 52.71875 -68.695312 53.078125 -68.945312 53.578125 -69.15625 C 54.078125 -69.375 54.738281 -69.523438 55.5625 -69.609375 C 56.394531 -69.703125 57.453125 -69.75 58.734375 -69.75 C 59.953125 -69.75 60.972656 -69.703125 61.796875 -69.609375 C 62.617188 -69.523438 63.253906 -69.375 63.703125 -69.15625 C 64.148438 -68.945312 64.460938 -68.695312 64.640625 -68.40625 C 64.828125 -68.125 64.921875 -67.804688 64.921875 -67.453125 Z M 64.921875 -4.9375 "/></g></g></g><g clip-path="url(#d859884d6f)"><g clip-path="url(#3f0af07523)"><path fill="#6c63ff" d="M 377.644531 43.449219 L 470.800781 43.449219 L 470.800781 124.964844 L 377.644531 124.964844 Z M 377.644531 43.449219 " fill-opacity="1" fill-rule="nonzero"/></g></g></svg>