<svg xmlns="http://www.w3.org/2000/svg" xmlns:xlink="http://www.w3.org/1999/xlink" width="700" zoomAndPan="magnify" viewBox="0 0 525 311.999988" height="416" preserveAspectRatio="xMidYMid meet" version="1.0"><defs><g/><clipPath id="70255ab57d"><path d="M 311.027344 89.941406 L 370 89.941406 L 370 140.886719 L 311.027344 140.886719 Z M 311.027344 89.941406 " clip-rule="nonzero"/></clipPath><clipPath id="c763248f22"><path d="M 349.019531 89.941406 L 331.257812 89.941406 C 320.085938 89.941406 311.027344 98.789062 311.027344 109.703125 C 311.027344 117.605469 315.777344 124.417969 322.636719 127.582031 L 322.636719 140.886719 L 336.375 129.464844 L 349.019531 129.464844 C 360.195312 129.464844 369.25 120.617188 369.25 109.703125 C 369.253906 98.789062 360.195312 89.941406 349.019531 89.941406 " clip-rule="nonzero"/></clipPath></defs><path stroke-linecap="butt" transform="matrix(0.475071, 0, 0, 0.475175, 75.000004, 150.112284)" fill="none" stroke-linejoin="miter" d="M -0.00000860195 6.003179 L 789.182441 6.003179 " stroke="#ffffff" stroke-width="12" stroke-opacity="1" stroke-miterlimit="4"/><g fill="#ffffff" fill-opacity="1"><g transform="translate(133.886002, 212.009088)"><g><path d="M 38.421875 -37.5625 C 38.421875 -37.132812 38.398438 -36.753906 38.359375 -36.421875 C 38.316406 -36.097656 38.25 -35.832031 38.15625 -35.625 C 38.070312 -35.414062 37.960938 -35.265625 37.828125 -35.171875 C 37.691406 -35.078125 37.546875 -35.03125 37.390625 -35.03125 C 37.117188 -35.03125 36.671875 -35.242188 36.046875 -35.671875 C 35.421875 -36.097656 34.582031 -36.566406 33.53125 -37.078125 C 32.476562 -37.597656 31.21875 -38.070312 29.75 -38.5 C 28.28125 -38.925781 26.535156 -39.140625 24.515625 -39.140625 C 22.117188 -39.140625 19.96875 -38.703125 18.0625 -37.828125 C 16.164062 -36.953125 14.554688 -35.738281 13.234375 -34.1875 C 11.910156 -32.644531 10.894531 -30.8125 10.1875 -28.6875 C 9.488281 -26.5625 9.140625 -24.253906 9.140625 -21.765625 C 9.140625 -18.992188 9.523438 -16.53125 10.296875 -14.375 C 11.066406 -12.226562 12.132812 -10.414062 13.5 -8.9375 C 14.863281 -7.457031 16.492188 -6.335938 18.390625 -5.578125 C 20.285156 -4.816406 22.363281 -4.4375 24.625 -4.4375 C 25.96875 -4.4375 27.328125 -4.597656 28.703125 -4.921875 C 30.078125 -5.242188 31.359375 -5.726562 32.546875 -6.375 L 32.546875 -19.046875 L 22.46875 -19.046875 C 22.09375 -19.046875 21.804688 -19.234375 21.609375 -19.609375 C 21.421875 -19.992188 21.328125 -20.585938 21.328125 -21.390625 C 21.328125 -21.816406 21.347656 -22.179688 21.390625 -22.484375 C 21.441406 -22.785156 21.515625 -23.03125 21.609375 -23.21875 C 21.710938 -23.414062 21.832031 -23.554688 21.96875 -23.640625 C 22.101562 -23.734375 22.269531 -23.78125 22.46875 -23.78125 L 36.28125 -23.78125 C 36.53125 -23.78125 36.773438 -23.734375 37.015625 -23.640625 C 37.265625 -23.554688 37.488281 -23.425781 37.6875 -23.25 C 37.894531 -23.070312 38.050781 -22.820312 38.15625 -22.5 C 38.269531 -22.1875 38.328125 -21.832031 38.328125 -21.4375 L 38.328125 -4.875 C 38.328125 -4.289062 38.222656 -3.785156 38.015625 -3.359375 C 37.816406 -2.929688 37.394531 -2.554688 36.75 -2.234375 C 36.101562 -1.910156 35.265625 -1.554688 34.234375 -1.171875 C 33.203125 -0.796875 32.132812 -0.472656 31.03125 -0.203125 C 29.9375 0.0664062 28.828125 0.269531 27.703125 0.40625 C 26.585938 0.539062 25.484375 0.609375 24.390625 0.609375 C 21.023438 0.609375 18.019531 0.0859375 15.375 -0.953125 C 12.738281 -1.992188 10.507812 -3.476562 8.6875 -5.40625 C 6.863281 -7.332031 5.46875 -9.640625 4.5 -12.328125 C 3.539062 -15.015625 3.0625 -18.015625 3.0625 -21.328125 C 3.0625 -24.773438 3.582031 -27.898438 4.625 -30.703125 C 5.664062 -33.503906 7.128906 -35.890625 9.015625 -37.859375 C 10.910156 -39.828125 13.179688 -41.351562 15.828125 -42.4375 C 18.484375 -43.53125 21.425781 -44.078125 24.65625 -44.078125 C 26.3125 -44.078125 27.867188 -43.929688 29.328125 -43.640625 C 30.785156 -43.347656 32.078125 -43.003906 33.203125 -42.609375 C 34.335938 -42.222656 35.289062 -41.796875 36.0625 -41.328125 C 36.832031 -40.867188 37.363281 -40.492188 37.65625 -40.203125 C 37.945312 -39.910156 38.144531 -39.570312 38.25 -39.1875 C 38.363281 -38.8125 38.421875 -38.269531 38.421875 -37.5625 Z M 38.421875 -37.5625 "/></g></g><g transform="translate(177.283566, 212.009088)"><g><path d="M 34.765625 -0.875 C 34.765625 -0.695312 34.726562 -0.539062 34.65625 -0.40625 C 34.59375 -0.269531 34.445312 -0.15625 34.21875 -0.0625 C 34 0.0195312 33.6875 0.0820312 33.28125 0.125 C 32.882812 0.175781 32.347656 0.203125 31.671875 0.203125 C 31.085938 0.203125 30.613281 0.175781 30.25 0.125 C 29.882812 0.0820312 29.585938 0.015625 29.359375 -0.078125 C 29.140625 -0.179688 28.96875 -0.320312 28.84375 -0.5 C 28.71875 -0.675781 28.609375 -0.898438 28.515625 -1.171875 L 24.515625 -11.421875 C 24.046875 -12.585938 23.5625 -13.65625 23.0625 -14.625 C 22.5625 -15.601562 21.960938 -16.441406 21.265625 -17.140625 C 20.566406 -17.847656 19.75 -18.394531 18.8125 -18.78125 C 17.875 -19.175781 16.742188 -19.375 15.421875 -19.375 L 11.5625 -19.375 L 11.5625 -0.875 C 11.5625 -0.695312 11.507812 -0.539062 11.40625 -0.40625 C 11.300781 -0.269531 11.140625 -0.160156 10.921875 -0.078125 C 10.710938 -0.00390625 10.421875 0.0546875 10.046875 0.109375 C 9.679688 0.171875 9.222656 0.203125 8.671875 0.203125 C 8.109375 0.203125 7.640625 0.171875 7.265625 0.109375 C 6.898438 0.0546875 6.601562 -0.00390625 6.375 -0.078125 C 6.15625 -0.160156 6 -0.269531 5.90625 -0.40625 C 5.820312 -0.539062 5.78125 -0.695312 5.78125 -0.875 L 5.78125 -41.109375 C 5.78125 -41.984375 6.007812 -42.59375 6.46875 -42.9375 C 6.925781 -43.289062 7.410156 -43.46875 7.921875 -43.46875 L 17.171875 -43.46875 C 18.265625 -43.46875 19.175781 -43.4375 19.90625 -43.375 C 20.632812 -43.320312 21.289062 -43.265625 21.875 -43.203125 C 23.550781 -42.910156 25.03125 -42.445312 26.3125 -41.8125 C 27.601562 -41.1875 28.6875 -40.394531 29.5625 -39.4375 C 30.4375 -38.476562 31.09375 -37.375 31.53125 -36.125 C 31.96875 -34.882812 32.1875 -33.515625 32.1875 -32.015625 C 32.1875 -30.554688 31.988281 -29.25 31.59375 -28.09375 C 31.195312 -26.945312 30.628906 -25.929688 29.890625 -25.046875 C 29.148438 -24.160156 28.265625 -23.390625 27.234375 -22.734375 C 26.210938 -22.085938 25.0625 -21.539062 23.78125 -21.09375 C 24.5 -20.78125 25.148438 -20.382812 25.734375 -19.90625 C 26.316406 -19.425781 26.859375 -18.847656 27.359375 -18.171875 C 27.859375 -17.503906 28.332031 -16.734375 28.78125 -15.859375 C 29.226562 -14.984375 29.675781 -14 30.125 -12.90625 L 34.03125 -3.328125 C 34.34375 -2.515625 34.539062 -1.945312 34.625 -1.625 C 34.71875 -1.300781 34.765625 -1.050781 34.765625 -0.875 Z M 26.0625 -31.40625 C 26.0625 -33.113281 25.679688 -34.550781 24.921875 -35.71875 C 24.160156 -36.894531 22.882812 -37.742188 21.09375 -38.265625 C 20.53125 -38.421875 19.894531 -38.53125 19.1875 -38.59375 C 18.488281 -38.664062 17.566406 -38.703125 16.421875 -38.703125 L 11.5625 -38.703125 L 11.5625 -24.046875 L 17.203125 -24.046875 C 18.722656 -24.046875 20.035156 -24.226562 21.140625 -24.59375 C 22.253906 -24.96875 23.179688 -25.484375 23.921875 -26.140625 C 24.660156 -26.804688 25.203125 -27.585938 25.546875 -28.484375 C 25.890625 -29.378906 26.0625 -30.351562 26.0625 -31.40625 Z M 26.0625 -31.40625 "/></g></g><g transform="translate(214.63503, 212.009088)"><g><path d="M 42.1875 -22.234375 C 42.1875 -18.722656 41.769531 -15.554688 40.9375 -12.734375 C 40.113281 -9.910156 38.878906 -7.503906 37.234375 -5.515625 C 35.585938 -3.535156 33.519531 -2.015625 31.03125 -0.953125 C 28.550781 0.109375 25.65625 0.640625 22.34375 0.640625 C 19.070312 0.640625 16.242188 0.15625 13.859375 -0.8125 C 11.472656 -1.789062 9.5 -3.207031 7.9375 -5.0625 C 6.382812 -6.925781 5.226562 -9.234375 4.46875 -11.984375 C 3.707031 -14.742188 3.328125 -17.914062 3.328125 -21.5 C 3.328125 -24.925781 3.738281 -28.035156 4.5625 -30.828125 C 5.394531 -33.628906 6.640625 -36.007812 8.296875 -37.96875 C 9.953125 -39.9375 12.019531 -41.453125 14.5 -42.515625 C 16.988281 -43.578125 19.894531 -44.109375 23.21875 -44.109375 C 26.414062 -44.109375 29.203125 -43.625 31.578125 -42.65625 C 33.953125 -41.695312 35.925781 -40.289062 37.5 -38.4375 C 39.082031 -36.59375 40.257812 -34.3125 41.03125 -31.59375 C 41.800781 -28.875 42.1875 -25.753906 42.1875 -22.234375 Z M 36.109375 -21.828125 C 36.109375 -24.296875 35.890625 -26.585938 35.453125 -28.703125 C 35.015625 -30.816406 34.285156 -32.648438 33.265625 -34.203125 C 32.253906 -35.765625 30.894531 -36.984375 29.1875 -37.859375 C 27.488281 -38.734375 25.382812 -39.171875 22.875 -39.171875 C 20.363281 -39.171875 18.257812 -38.695312 16.5625 -37.75 C 14.863281 -36.8125 13.476562 -35.554688 12.40625 -33.984375 C 11.34375 -32.421875 10.582031 -30.59375 10.125 -28.5 C 9.664062 -26.40625 9.4375 -24.207031 9.4375 -21.90625 C 9.4375 -19.351562 9.648438 -17 10.078125 -14.84375 C 10.503906 -12.695312 11.21875 -10.84375 12.21875 -9.28125 C 13.226562 -7.726562 14.578125 -6.519531 16.265625 -5.65625 C 17.960938 -4.789062 20.085938 -4.359375 22.640625 -4.359375 C 25.171875 -4.359375 27.296875 -4.828125 29.015625 -5.765625 C 30.742188 -6.710938 32.132812 -7.988281 33.1875 -9.59375 C 34.238281 -11.195312 34.988281 -13.050781 35.4375 -15.15625 C 35.882812 -17.257812 36.109375 -19.484375 36.109375 -21.828125 Z M 36.109375 -21.828125 "/></g></g><g transform="translate(260.182319, 212.009088)"><g><path d="M 38.46875 -16.0625 C 38.46875 -13.414062 38.078125 -11.054688 37.296875 -8.984375 C 36.523438 -6.910156 35.421875 -5.15625 33.984375 -3.71875 C 32.554688 -2.289062 30.8125 -1.207031 28.75 -0.46875 C 26.695312 0.269531 24.359375 0.640625 21.734375 0.640625 C 19.335938 0.640625 17.15625 0.296875 15.1875 -0.390625 C 13.21875 -1.085938 11.523438 -2.113281 10.109375 -3.46875 C 8.703125 -4.832031 7.613281 -6.53125 6.84375 -8.5625 C 6.082031 -10.601562 5.703125 -12.957031 5.703125 -15.625 L 5.703125 -42.59375 C 5.703125 -42.769531 5.75 -42.925781 5.84375 -43.0625 C 5.9375 -43.195312 6.09375 -43.300781 6.3125 -43.375 C 6.539062 -43.457031 6.832031 -43.523438 7.1875 -43.578125 C 7.539062 -43.640625 8.007812 -43.671875 8.59375 -43.671875 C 9.132812 -43.671875 9.59375 -43.640625 9.96875 -43.578125 C 10.351562 -43.523438 10.648438 -43.457031 10.859375 -43.375 C 11.078125 -43.300781 11.226562 -43.195312 11.3125 -43.0625 C 11.40625 -42.925781 11.453125 -42.769531 11.453125 -42.59375 L 11.453125 -16.328125 C 11.453125 -14.304688 11.695312 -12.546875 12.1875 -11.046875 C 12.6875 -9.546875 13.398438 -8.296875 14.328125 -7.296875 C 15.253906 -6.304688 16.375 -5.554688 17.6875 -5.046875 C 19 -4.546875 20.472656 -4.296875 22.109375 -4.296875 C 23.785156 -4.296875 25.273438 -4.539062 26.578125 -5.03125 C 27.890625 -5.53125 29 -6.269531 29.90625 -7.25 C 30.820312 -8.238281 31.519531 -9.457031 32 -10.90625 C 32.476562 -12.363281 32.71875 -14.070312 32.71875 -16.03125 L 32.71875 -42.59375 C 32.71875 -42.769531 32.757812 -42.925781 32.84375 -43.0625 C 32.9375 -43.195312 33.09375 -43.300781 33.3125 -43.375 C 33.539062 -43.457031 33.835938 -43.523438 34.203125 -43.578125 C 34.578125 -43.640625 35.046875 -43.671875 35.609375 -43.671875 C 36.140625 -43.671875 36.585938 -43.640625 36.953125 -43.578125 C 37.328125 -43.523438 37.617188 -43.457031 37.828125 -43.375 C 38.046875 -43.300781 38.207031 -43.195312 38.3125 -43.0625 C 38.414062 -42.925781 38.46875 -42.769531 38.46875 -42.59375 Z M 38.46875 -16.0625 "/></g></g><g transform="translate(304.31885, 212.009088)"><g><path d="M 38.625 -2.390625 C 38.625 -1.941406 38.550781 -1.554688 38.40625 -1.234375 C 38.257812 -0.921875 38.066406 -0.664062 37.828125 -0.46875 C 37.597656 -0.269531 37.335938 -0.125 37.046875 -0.03125 C 36.753906 0.0507812 36.460938 0.09375 36.171875 0.09375 L 34.328125 0.09375 C 33.742188 0.09375 33.234375 0.0351562 32.796875 -0.078125 C 32.359375 -0.203125 31.941406 -0.425781 31.546875 -0.75 C 31.160156 -1.082031 30.769531 -1.523438 30.375 -2.078125 C 29.988281 -2.640625 29.5625 -3.359375 29.09375 -4.234375 L 15.390625 -28.953125 C 14.671875 -30.234375 13.945312 -31.570312 13.21875 -32.96875 C 12.488281 -34.363281 11.8125 -35.722656 11.1875 -37.046875 L 11.125 -37.046875 C 11.164062 -35.441406 11.195312 -33.796875 11.21875 -32.109375 C 11.238281 -30.429688 11.25 -28.765625 11.25 -27.109375 L 11.25 -0.875 C 11.25 -0.71875 11.203125 -0.566406 11.109375 -0.421875 C 11.023438 -0.273438 10.875 -0.160156 10.65625 -0.078125 C 10.445312 -0.00390625 10.171875 0.0546875 9.828125 0.109375 C 9.484375 0.171875 9.039062 0.203125 8.5 0.203125 C 7.957031 0.203125 7.515625 0.171875 7.171875 0.109375 C 6.828125 0.0546875 6.550781 -0.00390625 6.34375 -0.078125 C 6.144531 -0.160156 6 -0.273438 5.90625 -0.421875 C 5.820312 -0.566406 5.78125 -0.71875 5.78125 -0.875 L 5.78125 -40.984375 C 5.78125 -41.878906 6.023438 -42.515625 6.515625 -42.890625 C 7.003906 -43.273438 7.539062 -43.46875 8.125 -43.46875 L 10.890625 -43.46875 C 11.535156 -43.46875 12.078125 -43.410156 12.515625 -43.296875 C 12.953125 -43.179688 13.34375 -42.992188 13.6875 -42.734375 C 14.03125 -42.484375 14.363281 -42.128906 14.6875 -41.671875 C 15.019531 -41.210938 15.375 -40.632812 15.75 -39.9375 L 26.296875 -20.859375 C 26.953125 -19.691406 27.582031 -18.550781 28.1875 -17.4375 C 28.789062 -16.332031 29.367188 -15.242188 29.921875 -14.171875 C 30.484375 -13.097656 31.039062 -12.039062 31.59375 -11 C 32.144531 -9.957031 32.6875 -8.910156 33.21875 -7.859375 L 33.25 -7.859375 C 33.207031 -9.628906 33.179688 -11.472656 33.171875 -13.390625 C 33.160156 -15.304688 33.15625 -17.144531 33.15625 -18.90625 L 33.15625 -42.5 C 33.15625 -42.65625 33.195312 -42.796875 33.28125 -42.921875 C 33.375 -43.054688 33.523438 -43.175781 33.734375 -43.28125 C 33.953125 -43.382812 34.234375 -43.457031 34.578125 -43.5 C 34.929688 -43.539062 35.382812 -43.5625 35.9375 -43.5625 C 36.4375 -43.5625 36.863281 -43.539062 37.21875 -43.5 C 37.570312 -43.457031 37.847656 -43.382812 38.046875 -43.28125 C 38.253906 -43.175781 38.398438 -43.054688 38.484375 -42.921875 C 38.578125 -42.796875 38.625 -42.65625 38.625 -42.5 Z M 38.625 -2.390625 "/></g></g><g transform="translate(348.724098, 212.009088)"><g><path d="M 39.203125 -22.375 C 39.203125 -18.613281 38.71875 -15.328125 37.75 -12.515625 C 36.789062 -9.703125 35.382812 -7.367188 33.53125 -5.515625 C 31.6875 -3.671875 29.421875 -2.289062 26.734375 -1.375 C 24.046875 -0.457031 20.84375 0 17.125 0 L 7.921875 0 C 7.410156 0 6.925781 -0.171875 6.46875 -0.515625 C 6.007812 -0.867188 5.78125 -1.476562 5.78125 -2.34375 L 5.78125 -41.109375 C 5.78125 -41.984375 6.007812 -42.59375 6.46875 -42.9375 C 6.925781 -43.289062 7.410156 -43.46875 7.921875 -43.46875 L 17.765625 -43.46875 C 21.523438 -43.46875 24.703125 -42.976562 27.296875 -42 C 29.898438 -41.03125 32.082031 -39.628906 33.84375 -37.796875 C 35.601562 -35.972656 36.9375 -33.765625 37.84375 -31.171875 C 38.75 -28.578125 39.203125 -25.644531 39.203125 -22.375 Z M 33.125 -22.140625 C 33.125 -24.492188 32.832031 -26.679688 32.25 -28.703125 C 31.664062 -30.734375 30.75 -32.484375 29.5 -33.953125 C 28.257812 -35.429688 26.6875 -36.585938 24.78125 -37.421875 C 22.882812 -38.253906 20.4375 -38.671875 17.4375 -38.671875 L 11.5625 -38.671875 L 11.5625 -4.84375 L 17.5 -4.84375 C 20.28125 -4.84375 22.617188 -5.1875 24.515625 -5.875 C 26.421875 -6.570312 28.007812 -7.632812 29.28125 -9.0625 C 30.5625 -10.5 31.519531 -12.296875 32.15625 -14.453125 C 32.800781 -16.617188 33.125 -19.179688 33.125 -22.140625 Z M 33.125 -22.140625 "/></g></g></g><g fill="#ffffff" fill-opacity="1"><g transform="translate(109.276144, 131.179463)"><g><path d="M 34.796875 -6.140625 C 34.796875 -5.785156 34.785156 -5.472656 34.765625 -5.203125 C 34.742188 -4.929688 34.703125 -4.695312 34.640625 -4.5 C 34.585938 -4.300781 34.515625 -4.125 34.421875 -3.96875 C 34.335938 -3.8125 34.179688 -3.617188 33.953125 -3.390625 C 33.734375 -3.171875 33.265625 -2.828125 32.546875 -2.359375 C 31.828125 -1.898438 30.9375 -1.453125 29.875 -1.015625 C 28.8125 -0.585938 27.59375 -0.222656 26.21875 0.078125 C 24.84375 0.378906 23.335938 0.53125 21.703125 0.53125 C 18.878906 0.53125 16.332031 0.0625 14.0625 -0.875 C 11.789062 -1.8125 9.851562 -3.195312 8.25 -5.03125 C 6.644531 -6.875 5.410156 -9.144531 4.546875 -11.84375 C 3.691406 -14.539062 3.265625 -17.644531 3.265625 -21.15625 C 3.265625 -24.769531 3.726562 -27.984375 4.65625 -30.796875 C 5.582031 -33.617188 6.882812 -36.007812 8.5625 -37.96875 C 10.238281 -39.9375 12.25 -41.429688 14.59375 -42.453125 C 16.9375 -43.484375 19.53125 -44 22.375 -44 C 23.625 -44 24.84375 -43.878906 26.03125 -43.640625 C 27.21875 -43.410156 28.316406 -43.113281 29.328125 -42.75 C 30.335938 -42.394531 31.234375 -41.984375 32.015625 -41.515625 C 32.796875 -41.046875 33.335938 -40.660156 33.640625 -40.359375 C 33.941406 -40.054688 34.132812 -39.828125 34.21875 -39.671875 C 34.3125 -39.515625 34.382812 -39.328125 34.4375 -39.109375 C 34.5 -38.898438 34.546875 -38.648438 34.578125 -38.359375 C 34.617188 -38.066406 34.640625 -37.722656 34.640625 -37.328125 C 34.640625 -36.878906 34.613281 -36.492188 34.5625 -36.171875 C 34.519531 -35.859375 34.453125 -35.59375 34.359375 -35.375 C 34.273438 -35.164062 34.171875 -35.007812 34.046875 -34.90625 C 33.921875 -34.8125 33.769531 -34.765625 33.59375 -34.765625 C 33.28125 -34.765625 32.84375 -34.984375 32.28125 -35.421875 C 31.71875 -35.859375 30.992188 -36.335938 30.109375 -36.859375 C 29.222656 -37.390625 28.148438 -37.875 26.890625 -38.3125 C 25.628906 -38.75 24.113281 -38.96875 22.34375 -38.96875 C 20.414062 -38.96875 18.660156 -38.582031 17.078125 -37.8125 C 15.503906 -37.039062 14.15625 -35.898438 13.03125 -34.390625 C 11.914062 -32.890625 11.046875 -31.0625 10.421875 -28.90625 C 9.804688 -26.75 9.5 -24.28125 9.5 -21.5 C 9.5 -18.738281 9.796875 -16.300781 10.390625 -14.1875 C 10.984375 -12.070312 11.832031 -10.300781 12.9375 -8.875 C 14.050781 -7.457031 15.414062 -6.382812 17.03125 -5.65625 C 18.644531 -4.925781 20.46875 -4.5625 22.5 -4.5625 C 24.226562 -4.5625 25.734375 -4.773438 27.015625 -5.203125 C 28.304688 -5.628906 29.40625 -6.101562 30.3125 -6.625 C 31.21875 -7.15625 31.960938 -7.632812 32.546875 -8.0625 C 33.128906 -8.488281 33.585938 -8.703125 33.921875 -8.703125 C 34.078125 -8.703125 34.210938 -8.664062 34.328125 -8.59375 C 34.441406 -8.53125 34.53125 -8.398438 34.59375 -8.203125 C 34.664062 -8.015625 34.71875 -7.753906 34.75 -7.421875 C 34.78125 -7.085938 34.796875 -6.660156 34.796875 -6.140625 Z M 34.796875 -6.140625 "/></g></g><g transform="translate(145.95582, 131.179463)"><g><path d="M 42.1875 -22.234375 C 42.1875 -18.722656 41.769531 -15.554688 40.9375 -12.734375 C 40.113281 -9.910156 38.878906 -7.503906 37.234375 -5.515625 C 35.585938 -3.535156 33.519531 -2.015625 31.03125 -0.953125 C 28.550781 0.109375 25.65625 0.640625 22.34375 0.640625 C 19.070312 0.640625 16.242188 0.15625 13.859375 -0.8125 C 11.472656 -1.789062 9.5 -3.207031 7.9375 -5.0625 C 6.382812 -6.925781 5.226562 -9.234375 4.46875 -11.984375 C 3.707031 -14.742188 3.328125 -17.914062 3.328125 -21.5 C 3.328125 -24.925781 3.738281 -28.035156 4.5625 -30.828125 C 5.394531 -33.628906 6.640625 -36.007812 8.296875 -37.96875 C 9.953125 -39.9375 12.019531 -41.453125 14.5 -42.515625 C 16.988281 -43.578125 19.894531 -44.109375 23.21875 -44.109375 C 26.414062 -44.109375 29.203125 -43.625 31.578125 -42.65625 C 33.953125 -41.695312 35.925781 -40.289062 37.5 -38.4375 C 39.082031 -36.59375 40.257812 -34.3125 41.03125 -31.59375 C 41.800781 -28.875 42.1875 -25.753906 42.1875 -22.234375 Z M 36.109375 -21.828125 C 36.109375 -24.296875 35.890625 -26.585938 35.453125 -28.703125 C 35.015625 -30.816406 34.285156 -32.648438 33.265625 -34.203125 C 32.253906 -35.765625 30.894531 -36.984375 29.1875 -37.859375 C 27.488281 -38.734375 25.382812 -39.171875 22.875 -39.171875 C 20.363281 -39.171875 18.257812 -38.695312 16.5625 -37.75 C 14.863281 -36.8125 13.476562 -35.554688 12.40625 -33.984375 C 11.34375 -32.421875 10.582031 -30.59375 10.125 -28.5 C 9.664062 -26.40625 9.4375 -24.207031 9.4375 -21.90625 C 9.4375 -19.351562 9.648438 -17 10.078125 -14.84375 C 10.503906 -12.695312 11.21875 -10.84375 12.21875 -9.28125 C 13.226562 -7.726562 14.578125 -6.519531 16.265625 -5.65625 C 17.960938 -4.789062 20.085938 -4.359375 22.640625 -4.359375 C 25.171875 -4.359375 27.296875 -4.828125 29.015625 -5.765625 C 30.742188 -6.710938 32.132812 -7.988281 33.1875 -9.59375 C 34.238281 -11.195312 34.988281 -13.050781 35.4375 -15.15625 C 35.882812 -17.257812 36.109375 -19.484375 36.109375 -21.828125 Z M 36.109375 -21.828125 "/></g></g><g transform="translate(191.503108, 131.179463)"><g><path d="M 53.046875 -0.875 C 53.046875 -0.695312 53 -0.539062 52.90625 -0.40625 C 52.8125 -0.269531 52.648438 -0.160156 52.421875 -0.078125 C 52.203125 -0.00390625 51.921875 0.0546875 51.578125 0.109375 C 51.234375 0.171875 50.78125 0.203125 50.21875 0.203125 C 49.707031 0.203125 49.265625 0.171875 48.890625 0.109375 C 48.523438 0.0546875 48.234375 -0.00390625 48.015625 -0.078125 C 47.804688 -0.160156 47.65625 -0.269531 47.5625 -0.40625 C 47.476562 -0.539062 47.4375 -0.695312 47.4375 -0.875 L 47.4375 -38.734375 L 47.359375 -38.734375 L 31.875 -0.703125 C 31.8125 -0.546875 31.71875 -0.410156 31.59375 -0.296875 C 31.46875 -0.191406 31.285156 -0.0976562 31.046875 -0.015625 C 30.816406 0.0546875 30.539062 0.109375 30.21875 0.140625 C 29.894531 0.179688 29.507812 0.203125 29.0625 0.203125 C 28.59375 0.203125 28.1875 0.175781 27.84375 0.125 C 27.507812 0.0820312 27.226562 0.0234375 27 -0.046875 C 26.78125 -0.128906 26.609375 -0.222656 26.484375 -0.328125 C 26.359375 -0.441406 26.273438 -0.566406 26.234375 -0.703125 L 11.421875 -38.734375 L 11.390625 -38.734375 L 11.390625 -0.875 C 11.390625 -0.695312 11.34375 -0.539062 11.25 -0.40625 C 11.164062 -0.269531 11.007812 -0.160156 10.78125 -0.078125 C 10.5625 -0.00390625 10.269531 0.0546875 9.90625 0.109375 C 9.550781 0.171875 9.09375 0.203125 8.53125 0.203125 C 7.988281 0.203125 7.539062 0.171875 7.1875 0.109375 C 6.832031 0.0546875 6.546875 -0.00390625 6.328125 -0.078125 C 6.117188 -0.160156 5.972656 -0.269531 5.890625 -0.40625 C 5.816406 -0.539062 5.78125 -0.695312 5.78125 -0.875 L 5.78125 -40.84375 C 5.78125 -41.789062 6.023438 -42.460938 6.515625 -42.859375 C 7.003906 -43.265625 7.550781 -43.46875 8.15625 -43.46875 L 11.65625 -43.46875 C 12.375 -43.46875 13 -43.398438 13.53125 -43.265625 C 14.070312 -43.128906 14.539062 -42.914062 14.9375 -42.625 C 15.34375 -42.332031 15.679688 -41.960938 15.953125 -41.515625 C 16.222656 -41.066406 16.457031 -40.539062 16.65625 -39.9375 L 29.265625 -8.46875 L 29.421875 -8.46875 L 42.53125 -39.84375 C 42.769531 -40.507812 43.035156 -41.078125 43.328125 -41.546875 C 43.617188 -42.023438 43.9375 -42.398438 44.28125 -42.671875 C 44.632812 -42.953125 45.023438 -43.15625 45.453125 -43.28125 C 45.878906 -43.40625 46.367188 -43.46875 46.921875 -43.46875 L 50.59375 -43.46875 C 50.925781 -43.46875 51.242188 -43.414062 51.546875 -43.3125 C 51.847656 -43.21875 52.101562 -43.0625 52.3125 -42.84375 C 52.53125 -42.632812 52.707031 -42.363281 52.84375 -42.03125 C 52.976562 -41.707031 53.046875 -41.3125 53.046875 -40.84375 Z M 53.046875 -0.875 "/></g></g><g transform="translate(250.318228, 131.179463)"><g><path d="M 53.046875 -0.875 C 53.046875 -0.695312 53 -0.539062 52.90625 -0.40625 C 52.8125 -0.269531 52.648438 -0.160156 52.421875 -0.078125 C 52.203125 -0.00390625 51.921875 0.0546875 51.578125 0.109375 C 51.234375 0.171875 50.78125 0.203125 50.21875 0.203125 C 49.707031 0.203125 49.265625 0.171875 48.890625 0.109375 C 48.523438 0.0546875 48.234375 -0.00390625 48.015625 -0.078125 C 47.804688 -0.160156 47.65625 -0.269531 47.5625 -0.40625 C 47.476562 -0.539062 47.4375 -0.695312 47.4375 -0.875 L 47.4375 -38.734375 L 47.359375 -38.734375 L 31.875 -0.703125 C 31.8125 -0.546875 31.71875 -0.410156 31.59375 -0.296875 C 31.46875 -0.191406 31.285156 -0.0976562 31.046875 -0.015625 C 30.816406 0.0546875 30.539062 0.109375 30.21875 0.140625 C 29.894531 0.179688 29.507812 0.203125 29.0625 0.203125 C 28.59375 0.203125 28.1875 0.175781 27.84375 0.125 C 27.507812 0.0820312 27.226562 0.0234375 27 -0.046875 C 26.78125 -0.128906 26.609375 -0.222656 26.484375 -0.328125 C 26.359375 -0.441406 26.273438 -0.566406 26.234375 -0.703125 L 11.421875 -38.734375 L 11.390625 -38.734375 L 11.390625 -0.875 C 11.390625 -0.695312 11.34375 -0.539062 11.25 -0.40625 C 11.164062 -0.269531 11.007812 -0.160156 10.78125 -0.078125 C 10.5625 -0.00390625 10.269531 0.0546875 9.90625 0.109375 C 9.550781 0.171875 9.09375 0.203125 8.53125 0.203125 C 7.988281 0.203125 7.539062 0.171875 7.1875 0.109375 C 6.832031 0.0546875 6.546875 -0.00390625 6.328125 -0.078125 C 6.117188 -0.160156 5.972656 -0.269531 5.890625 -0.40625 C 5.816406 -0.539062 5.78125 -0.695312 5.78125 -0.875 L 5.78125 -40.84375 C 5.78125 -41.789062 6.023438 -42.460938 6.515625 -42.859375 C 7.003906 -43.265625 7.550781 -43.46875 8.15625 -43.46875 L 11.65625 -43.46875 C 12.375 -43.46875 13 -43.398438 13.53125 -43.265625 C 14.070312 -43.128906 14.539062 -42.914062 14.9375 -42.625 C 15.34375 -42.332031 15.679688 -41.960938 15.953125 -41.515625 C 16.222656 -41.066406 16.457031 -40.539062 16.65625 -39.9375 L 29.265625 -8.46875 L 29.421875 -8.46875 L 42.53125 -39.84375 C 42.769531 -40.507812 43.035156 -41.078125 43.328125 -41.546875 C 43.617188 -42.023438 43.9375 -42.398438 44.28125 -42.671875 C 44.632812 -42.953125 45.023438 -43.15625 45.453125 -43.28125 C 45.878906 -43.40625 46.367188 -43.46875 46.921875 -43.46875 L 50.59375 -43.46875 C 50.925781 -43.46875 51.242188 -43.414062 51.546875 -43.3125 C 51.847656 -43.21875 52.101562 -43.0625 52.3125 -42.84375 C 52.53125 -42.632812 52.707031 -42.363281 52.84375 -42.03125 C 52.976562 -41.707031 53.046875 -41.3125 53.046875 -40.84375 Z M 53.046875 -0.875 "/></g></g></g><g fill="#ffffff" fill-opacity="1"><g transform="translate(309.110954, 131.179463)"><g/></g><g transform="translate(324.662867, 131.179463)"><g/></g><g transform="translate(340.214781, 131.179463)"><g/></g><g transform="translate(355.766694, 131.179463)"><g/></g></g><g fill="#ffffff" fill-opacity="1"><g transform="translate(371.318607, 131.179463)"><g><path d="M 38.625 -2.390625 C 38.625 -1.941406 38.550781 -1.554688 38.40625 -1.234375 C 38.257812 -0.921875 38.066406 -0.664062 37.828125 -0.46875 C 37.597656 -0.269531 37.335938 -0.125 37.046875 -0.03125 C 36.753906 0.0507812 36.460938 0.09375 36.171875 0.09375 L 34.328125 0.09375 C 33.742188 0.09375 33.234375 0.0351562 32.796875 -0.078125 C 32.359375 -0.203125 31.941406 -0.425781 31.546875 -0.75 C 31.160156 -1.082031 30.769531 -1.523438 30.375 -2.078125 C 29.988281 -2.640625 29.5625 -3.359375 29.09375 -4.234375 L 15.390625 -28.953125 C 14.671875 -30.234375 13.945312 -31.570312 13.21875 -32.96875 C 12.488281 -34.363281 11.8125 -35.722656 11.1875 -37.046875 L 11.125 -37.046875 C 11.164062 -35.441406 11.195312 -33.796875 11.21875 -32.109375 C 11.238281 -30.429688 11.25 -28.765625 11.25 -27.109375 L 11.25 -0.875 C 11.25 -0.71875 11.203125 -0.566406 11.109375 -0.421875 C 11.023438 -0.273438 10.875 -0.160156 10.65625 -0.078125 C 10.445312 -0.00390625 10.171875 0.0546875 9.828125 0.109375 C 9.484375 0.171875 9.039062 0.203125 8.5 0.203125 C 7.957031 0.203125 7.515625 0.171875 7.171875 0.109375 C 6.828125 0.0546875 6.550781 -0.00390625 6.34375 -0.078125 C 6.144531 -0.160156 6 -0.273438 5.90625 -0.421875 C 5.820312 -0.566406 5.78125 -0.71875 5.78125 -0.875 L 5.78125 -40.984375 C 5.78125 -41.878906 6.023438 -42.515625 6.515625 -42.890625 C 7.003906 -43.273438 7.539062 -43.46875 8.125 -43.46875 L 10.890625 -43.46875 C 11.535156 -43.46875 12.078125 -43.410156 12.515625 -43.296875 C 12.953125 -43.179688 13.34375 -42.992188 13.6875 -42.734375 C 14.03125 -42.484375 14.363281 -42.128906 14.6875 -41.671875 C 15.019531 -41.210938 15.375 -40.632812 15.75 -39.9375 L 26.296875 -20.859375 C 26.953125 -19.691406 27.582031 -18.550781 28.1875 -17.4375 C 28.789062 -16.332031 29.367188 -15.242188 29.921875 -14.171875 C 30.484375 -13.097656 31.039062 -12.039062 31.59375 -11 C 32.144531 -9.957031 32.6875 -8.910156 33.21875 -7.859375 L 33.25 -7.859375 C 33.207031 -9.628906 33.179688 -11.472656 33.171875 -13.390625 C 33.160156 -15.304688 33.15625 -17.144531 33.15625 -18.90625 L 33.15625 -42.5 C 33.15625 -42.65625 33.195312 -42.796875 33.28125 -42.921875 C 33.375 -43.054688 33.523438 -43.175781 33.734375 -43.28125 C 33.953125 -43.382812 34.234375 -43.457031 34.578125 -43.5 C 34.929688 -43.539062 35.382812 -43.5625 35.9375 -43.5625 C 36.4375 -43.5625 36.863281 -43.539062 37.21875 -43.5 C 37.570312 -43.457031 37.847656 -43.382812 38.046875 -43.28125 C 38.253906 -43.175781 38.398438 -43.054688 38.484375 -42.921875 C 38.578125 -42.796875 38.625 -42.65625 38.625 -42.5 Z M 38.625 -2.390625 "/></g></g></g><g clip-path="url(#70255ab57d)"><g clip-path="url(#c763248f22)"><path fill="#5e17eb" d="M 311.027344 89.941406 L 369.25 89.941406 L 369.25 140.886719 L 311.027344 140.886719 Z M 311.027344 89.941406 " fill-opacity="1" fill-rule="nonzero"/></g></g></svg>